<?xml version="1.0" encoding="UTF-8"?>
<svg id="Layer_1" data-name="Layer 1" xmlns="http://www.w3.org/2000/svg" viewBox="0 0 381.29 495.46">
  <defs>
    <style>
      .cls-1 {
        fill: #fff;
      }
    </style>
  </defs>
  <path class="cls-1" d="m167.88,161.57c7.39-.88,7.44-10.57,15.6-15.04,6.7-3.67,16.56-2.58,22.2,1.74,6.31,4.82,6.29,12.89,9,12.72,2.9-.17,2.13-9.4,9-13.88,1.95-1.27,4.71-1.62,10.2-2.31,10.13-1.28,15.2-1.91,20.4.58,5.02,2.4,7.96,6.49,9,8.1,3.09,4.79,3.3,9.33,4.2,9.25,1.25-.11-.84-8.76,4.2-15.04,2.55-3.18,5.99-4.56,9-5.78,5.17-2.09,9.6-2.2,13.8-2.31,3.32-.09,7.45-.19,12.6,1.16,4.86,1.27,11.06,2.89,13.2,7.52.4.87.09.61,1.8,6.94,1.22,4.51,1.55,5.31,2.4,5.78,1.75.98,3.87-.46,8.4-2.31,5.5-2.26,8.3-3.41,11.4-3.47,5.73-.12,10.18,3.5,14.4,6.94,2.99,2.43,5.7,4.64,7.2,8.68.47,1.26,1.66,4.96.6,9.25-.55,2.24-1.52,3.87-3,6.36-1.37,2.32-1.61,2.2-3.6,5.21-3.14,4.76-3.01,5.76-4.8,6.94-2.85,1.88-5.94,1.16-6,1.74-.1.97,8.96.51,15.6,5.78,5.46,4.33,6.88,10.6,7.2,12.15.39,1.84,1.24,6.16-.6,10.99-1.61,4.24-4.44,6.6-9,10.41-3.55,2.97-5.56,4.64-9,5.78-2.5.83-7.47,2.48-11.56.79-.4-.17-.71-.33-1.04-.21-2.18.75,2.08,10.15-1.8,16.19-.86,1.34-1.99,2.31-8.4,5.21-10.95,4.93-16.43,7.4-20.4,7.52-9.63.28-20.09-5-21.6-5.78-3.49-1.8-6.81-4.04-10.2-2.89-2.66.9-2.75,3-5.4,5.21-3.28,2.74-7.63,2.83-16.2,2.89-9.28.07-14.9.04-17.4-3.47-1.82-2.54-1.16-5.75-1.8-5.78-1-.05-.32,8.1-5.4,13.88-2.54,2.89-5.53,4.07-8.4,5.21-8.89,3.51-16.72,1.61-21,.58-5.01-1.21-6.5-2.63-7.2-3.47-1.99-2.38-1.65-4.9-3-5.21-1.66-.38-2.8,3.32-6,5.78-4.91,3.78-11.94,2.57-16.8,1.74-4.51-.77-11.4-1.96-15.6-7.52-3.04-4.01-3.56-8.84-3.6-9.25-.45-4.62,1.31-6.14,0-8.1-2.06-3.09-7.26-.56-13.2-3.47-2.67-1.31-4.58-3.96-8.4-9.25-4.89-6.78-7.55-10.47-8.4-16.19-.39-2.64-1.05-7.08,1.2-11.57,2.33-4.64,7.2-8.21,10.2-10.41,3.7-2.71,5.28-3.12,5.4-4.63.25-3.02-5.86-3.56-9.6-9.25-3.18-4.83-2.67-10.35-2.4-13.3.47-5.13,2.38-8.74,3.6-10.99,2.38-4.38,5.1-9.42,10.8-11.57,5.74-2.17,11.84-.43,13.2,0,2.89.9,4.32,2.08,8.4,2.89,1.29.26,4.28.86,6.6.58Z"/>
  <path class="cls-1" d="m213.36,282.12c-14.44-1.76-25.38,6.12-28,8-8.39,6.03-12.23,13.48-14,17-1.73,3.45-6.85,14.01-5,28,.34,2.58,1.84,12.25,9,22,2.94,4.01,14.68,18.72,34,20,11.77.78,20.7-3.8,25-6,5.39-2.76,11.69-5.99,16-13,4.43-7.21,4.27-14.37,4-26-.17-7.22-.29-12.53-3-19-2.95-7.05-7.24-11.32-11-15-7.23-7.07-14.85-14.52-27-16Z"/>
  <path class="cls-1" d="m139.2,377.33c-12.34-1.46-21.7,5.07-23.94,6.63-7.17,5-10.46,11.17-11.97,14.09-1.48,2.86-5.86,11.61-4.28,23.2.29,2.14,1.58,10.15,7.7,18.23,2.52,3.33,12.55,15.51,29.07,16.57,10.07.65,17.7-3.15,21.38-4.97,4.61-2.29,10-4.97,13.68-10.77,3.79-5.97,3.65-11.91,3.42-21.54-.14-5.98-.25-10.38-2.57-15.74-2.53-5.84-6.19-9.38-9.41-12.43-6.19-5.86-12.7-12.03-23.09-13.26h.01Z"/>
  <path class="cls-1" d="m40.53,416.67c-12.34-1.46-21.7,5.07-23.94,6.63-7.17,5-10.46,11.17-11.97,14.09-1.48,2.86-5.86,11.61-4.28,23.2.29,2.14,1.58,10.15,7.7,18.23,2.52,3.33,12.55,15.51,29.07,16.57,10.07.65,17.7-3.15,21.38-4.97,4.61-2.29,10-4.97,13.68-10.77,3.79-5.97,3.65-11.91,3.42-21.54-.14-5.98-.25-10.38-2.57-15.74-2.53-5.84-6.19-9.38-9.41-12.43-6.19-5.86-12.7-12.03-23.09-13.26h.01Z"/>
  <g>
    <path d="m260.96,283.81c-4.42-.53-7.96-1.8-11.73-1.97-1.55-.07-2.9-.82-4.33-1.3-4.4-1.49-5.22-1.22-7.3,2.7-1.47,2.77-2.66,5.67-5.16,7.83-.56.49-1.07,1.11-1.72,1.39-2.51,1.11-5.02,2.74-7.64,2.96-2.74.23-5.41,1.08-8.13.96-5.72-.24-10.98-2.41-16.32-4.14-.88-.28-1.6-1.06-2.38-1.63-.78-.56-1.52-1.19-2.34-1.68-2.1-1.28-4.19-1.63-6.16.27-.08.08-.17.13-.26.2-6.86,5.91-14.19,5.83-22.34,2.42-5.34-2.24-9.4-5.94-13.89-9.17-1.26-.91-2.04-2.43-3.09-3.62-1.62-1.83-3-3.82-4.63-5.66-2.61-2.96-3.37-6.76-3.07-10.54.28-3.41-.01-3.18-3.11-3.83-2.68-.57-5.28-1.3-7.77-2.37-3.81-1.63-6.88-4.19-9.88-6.93-2.41-2.2-3.93-4.97-5.93-7.43-2.65-3.27-3.04-7.24-2.56-11.25.1-.84.08-1.64.07-2.48-.04-2.83.28-5.52,2.03-8.02,1.37-1.97,2.02-4.41,3.34-6.42,2.65-4.06,6.31-7.21,10.75-9.76-2.05-1.32-3.25-3.01-4-5.23-.79-2.35-2.58-4.29-3.54-6.68-2.73-6.77-2.47-13.45-.05-20.17,1.88-5.23,5.77-9.02,9.79-12.74,4-3.7,9.16-5.47,13.86-7.96,1.9-1.01,4.29-1.49,6.63-.83.31.09.68.14.97.06,3.89-1.15,7.76.11,11.64.13,2.22.01,3.83-.48,5.19-2.43,2.08-2.98,5.13-5.22,8.2-7.1,3.5-2.13,7.5-3.56,11.62-4.36,1.13-.22,2.29-.31,3.53-.07,3.83.73,7.71,1.26,11.57,1.84.89.13,1.62.54,2.37.98,1.85,1.09,3.83,2,5.61,3.18,1.82,1.21,2.33,3.44,3.48,4.99.61.08.84-.13,1.01-.4,2.51-3.82,6.76-5.84,10.02-8.9.68-.64,1.62-1.06,2.5-1.43,1.99-.84,4.06-1.5,5.57-3.13.28-.3.73-.64,1.1-.63,3.41.06,6.64-1.28,10.26-.37,4.17,1.05,8.1,2.31,11.63,4.67.27.18.53.42.83.49,3.49.75,6.31,2.77,9.28,4.49,1.2.69,1.96.86,3.02-.31,1.2-1.32,2.91-2.22,3.77-3.87.76-1.47,2.52-1.52,3.7-2.41,3.19-2.41,6.81-4.15,10.54-5.56,4.49-1.7,9.51-2.57,13.97-1.14,5.55,1.79,11.38,2.72,16.74,5.04,1.42.61,2.69,1.28,3.41,2.71.37.74.9,1.46,1.7,1.88,2.8,1.47,3.85,4.37,5.8,6.53.73.8.47,1.76.62,2.68.43,2.61,1.43,3.27,4.13,2.98.11-.01.22,0,.32-.03,5.39-1.54,10.49.09,15.59,1.42,3.85,1.01,7.84,1.64,11.25,3.94,3.48,2.36,6.96,4.86,9.54,8.02,3.22,3.93,3.13,8.99,2.85,13.83-.09,1.56-.55,3.1-.82,4.65-.65,3.83-2.84,6.63-6.19,8.65-1.93,1.17-2.32,3.44-4.36,4.88,2.62,1.07,4.43,2.5,6.6,3.48,5,2.27,9.09,5.55,10.56,11.07.32,1.21.74,2.43,1.34,3.52.71,1.3.73,2.56.57,3.96-.55,4.66-1.71,9.11-3.8,13.38-1.28,2.61-2.3,5.35-3.9,7.81-1.31,2.02-3.08,3.64-4.83,5.34-2.33,2.28-5.26,3.57-7.63,5.67-3.33,2.95-7.33,4.15-11.86,4.02-2.93-.09-3.02.29-3.65,3.2-.74,3.39-1.89,6.68-4.54,9.21-1.45,1.38-2.72,2.9-4.24,4.23-2.44,2.13-5.49,2.89-8.31,4.05-2.57,1.06-5.3,1.86-7.79,3.11-3.69,1.86-7.75,1.52-11.65,2.14-3.61.58-7.07-.5-10.58-.86-2.54-.26-4.87-1.59-7.35-2.32-2.96-.87-6.04-1.72-8.25-4.12-.68-.74-1.64-.37-1.98.22-1.35,2.33-4.42,2.97-5.58,5.67,1.61,1.05,3.16,2.01,5.55,1.43,2.97-.72,5.43,1.24,8,2.26,4.46,1.78,8.17,4.6,10.93,8.5,1.1,1.54,2.7,2.65,3.94,4.14,2.84,3.39,4.26,7.11,4.67,11.41.17,1.82.85,3.57.94,5.48.11,2.34.14,4.63-.59,6.84-.64,1.92-.46,3.96-1.13,5.85-1.73,4.84-4.48,8.98-8.91,11.98-.52.35-.91.9-1.34,1.36-4.62,4.95-10.54,6.54-17.19,6.23-.41-.02-.77-.16-1.22-.03-3.59.95-7.22.43-10.55-.69-3.7-1.24-7.42-2.74-10.21-5.66-1.59-1.67-3.64-2.81-5.19-4.59-3.72-4.25-6.79-8.66-7.45-14.42-.32-2.79-1.16-5.52-.92-8.39.59-7.2,2.2-14.06,6.87-19.94,1.33-1.68,2.99-3.01,4.86-4.14,1.43-.86,2.75-1.87,4.69-3.22h-.04Zm48.07-11.22c2.38.53,4.98-.97,7.63-.82,3.12.17,4.83-2.19,7.36-2.96.68-.21,1.37-.54,2.08-.79,4.93-1.72,9.94-3.36,11.49-9.07.02-.1.11-.18.17-.27.8-1.31.99-2.62.79-4.19-.36-2.82-1.18-5.52-1.63-8.31-.31-1.89.58-3.14,2.17-4.22,1.48-1.01,2.59-.06,3.5.53,1.99,1.29,3.92,1.57,6.37,1.53,6.38-.1,11.31-2.3,14.87-7.41,1.39-2,2.77-4.02,4.39-5.84,4.24-4.78,4.19-9.84,1.56-15.26-.44-.91-.98-1.76-1.84-2.1-1.33-.54-1.95-1.6-2.79-2.56-3.6-4.1-7.65-7.46-13.67-7.42-.11,0-.22.02-.32,0-2.26-.34-3.22-2.08-2.24-4.16.73-1.54,1.81-2.82,2.95-4.12,1.88-2.15,4.86-3.3,6.08-5.96.86-1.86,1.97-3.51,3.35-5,2.82-3.07,2.47-6.45,1.16-9.93-2-5.31-6.39-8.61-11.07-11.42-5.06-3.04-10.73-3.09-16.43-1.98-2.92.57-5.8,1.33-8.73,1.84-2.42.42-3.99-.88-4.19-3.22-.06-.73-.07-1.47-.05-2.2.07-3.82-1.82-6.88-4.63-9.19-2.79-2.29-5.46-5.18-9.7-5-.2.01-.41-.14-.61-.2-2.98-.86-5.86-1.64-9.1-1.79-5.71-.28-10.84,1.52-16.19,2.61-.91.19-1.54.84-2.13,1.41-3.85,3.74-7.38,7.69-8.46,13.11-.13.62-.24,1.26-.52,1.82-.61,1.25-1.34,2.42-2.91,2.74-.62.12-1.11.16-1.63-.53-1.6-2.12-3.04-4.3-3.75-6.86-.29-1.04-1.09-1.76-1.65-2.63-1.73-2.68-4.66-3.7-7.22-5.14-3.74-2.1-8.02-2.49-12.22-1.96-6.2.77-11.88,2.93-16.7,6.92-.58.47-1.18.95-1.84,1.29-2.72,1.42-4.16,3.7-4.86,6.52-.28,1.15-.77,2.24-2.19,2.43-1.35.18-2.54-.05-3.46-1.21-.61-.77-1.19-1.61-1.33-2.49-.38-2.32-1.93-3.67-3.8-4.85-.82-.51-1.61-1.07-2.39-1.65-6.95-5.14-14.46-5.47-22.36-2.43-5.56,2.14-7.86,7.3-11.23,11.44-.18.23-.16.6-.24.91-1.03,4.05-4.74,4.64-7.2,2.01-.93-1-1.82-2.08-3.1-2.76-4.47-2.37-9.39-1.84-14.19-2.06-.58-.03-1.23.41-1.77.75-.65.4-1.24.79-2.06.83-2.12.1-3.62,1.32-4.93,2.75-3.08,3.37-5.32,7.37-8.59,10.61-.43.43-.65,1.08-.92,1.65-2.11,4.45-1.34,9.26-1.79,13.92-.02.2.02.46.15.6,2.24,2.49,2.77,6.52,7.15,7.11,1.12.15,2.11,1.05,3.21,1.52,1.46.61,1.86,1.81,1.73,3.09-.19,1.78-.76,3.56-2.54,4.45-3.51,1.75-6.43,4.25-9.52,6.54-1.56,1.16-2.59,2.59-3.16,4.27-1.7,5.11-1.54,10.31-.58,15.53.08.41.19.83.4,1.2,2.13,3.85,4,7.77,6.94,11.23,5.05,5.97,11.3,7.92,18.92,6.6,2.05-.35,3.34.25,4.13,2.08,1.12,2.57.97,5.23-.08,7.67-1.19,2.76-.8,5.37.18,7.94,1.34,3.5,4.28,5.93,6.71,8.7.37.43,1.14.56,1.75.76.82.27,1.68.43,2.5.7,4.54,1.52,9.15,2.6,13.94,1.36,4.59-1.19,9.27-2.3,11.54-7.12.66-1.41,2.66-1.99,4.25-1.68,1.46.28,1.82,1.21,2.36,2.53,1.48,3.66,3.07,7.06,7.78,8.52,4.54,1.42,8.67,2.78,13.48,1.14,1.74-.59,3.47-1.06,4.96-2.09,2.03-1.4,3.97-2.91,6.01-4.31,1.1-.76,1.73-1.81,2.46-2.86,1.58-2.25,2.12-4.75,2.39-7.38.14-1.35.31-2.72.62-4.04.69-2.86,3.21-3.54,5.38-1.49.7.67,1.37,1.41,1.51,2.38.29,2.17,1.99,3.44,3.7,4.12,6.4,2.57,13.02,4.15,19.91,1.8,4.81-1.64,8.52-4.55,9.95-9.46.47-1.64,1.67-2.39,2.84-3.26,2.23-1.65,4.29-1.24,5.1,1.29.83,2.59,2.6,4.34,4.62,5.92,3.47,2.72,7.72,4.2,11.79,5.71,3.02,1.13,6.48,1.74,10.31,1.24h-.02Zm-55.15,37.54c-.11,1.26-.29,2.5-.32,3.76-.07,2.84-.13,5.78,1.38,8.26.81,1.34,1.75,2.59,2.24,4.08.65,1.99,2.05,3.39,3.79,4.52.63.41,1.5.66,1.88,1.22,2.3,3.44,6.31,3.81,9.76,5.05,1.97.71,4.32,0,6.4.83.25.1.65-.03.92-.16,2.74-1.37,5.76-2.02,8.44-3.73,2.84-1.82,4.9-4.17,6.49-6.8,4.3-7.11,4.01-14.62,1-22.09-1.38-3.42-3.64-6.44-6.28-9.05-4.54-4.49-10.7-5.12-16.7-6.01-.31-.05-.64.12-.96.16-3.39.46-6.25,1.94-9.07,3.81-5.95,3.93-8.42,9.51-8.99,16.14h0Z"/>
    <path d="m147.18,385.39c-.41-5.42,1.4-10.45,3.44-15.41.31-.74.98-1.38,1.59-1.96,3.78-3.61,7.11-7.88,13.02-8.45,3.28-2.1,6.71-1.13,10.29-.87,3.19.23,6.21,1,9.27,1.59,2.42.47,4.06,2.43,5.34,4.34.65.97,1.34,1.56,2.33,1.93,1.68.63,2.63,1.87,3.02,3.46.47,1.95,1.23,3.8,2.07,5.6,2.27,4.9,2.94,10.18,1.01,15-2.1,5.24-4.09,10.87-9.22,14.46-.88.62-1.76,1.23-2.83,1.52-.52.14-1.16.21-1.51.55-2.39,2.33-5.33,3.07-8.62,3.65-3.87.68-7.51.22-11.17-.56-1.78-.38-3.46-1.21-5.16-1.92-2.52-1.05-3.92-3.36-5.47-5.27-1.64-2.02-3.35-4.09-4.62-6.45-1.89-3.54-3-7.16-2.77-11.2h0Zm11.13-5.06c-.55,4.38.98,8.1,3.19,11.22,1.46,2.06,4.33,3.48,6.87,4.51,3.81,1.54,7.64,2.13,11.97.47,3.94-1.5,6.34-3.95,7.89-7.32,3.23-7.07.37-13.08-4.24-18.49-1.63-1.91-4.07-2.96-6.74-3.52-4.83-1.01-9.15.28-13.39,2.22-.55.25-1.03.79-1.39,1.3-2.12,3.02-4.45,5.97-4.15,9.61h0Z"/>
    <path d="m259.49,359.8c.39,4.88-.32,9.27-2,13.57-.96,2.46-2.6,4.41-4.72,5.74-1.39.87-2.59,1.86-3.73,2.94-1.82,1.73-3.88,2.96-6.39,3.46-.43.09-.89.12-1.26.31-3.74,1.87-7.56,1.75-11.56.76-1.74-.43-3.6-.39-5.38-.93-4.21-1.28-7.12-4.03-10.18-6.94-2.32-2.2-3.77-4.7-5.34-7.28-.56-.93-.99-1.87-1.21-2.9-.5-2.33-.95-4.67-1.43-7.01-.2-.95-.2-2.01.22-2.79,1.3-2.41,1.76-4.88,1.39-7.55-.16-1.09.31-1.95,1.1-2.82,1.77-1.93,3.06-4.25,5.08-5.99.54-.46.58-1.1.75-1.69.56-1.89,2.31-2.7,3.71-3.83.5-.4,1.09-.3,1.47.08.69.7.94.23,1.51-.2,2.62-1.98,5.14-4.04,8.71-4.52,3.48-.47,8.78.06,12.31,1.86.46.23.8.1,1.22.06,1.63-.17,2.96.63,4.13,1.5,4.07,3.03,6.86,6.99,9.11,11.44,2.11,4.16,3.14,8.41,2.5,12.71h0Zm-9.56,2.67c-.11-7.61-2.09-12.45-7.02-16.22-4.45-3.4-12.9-3.35-17.45-.16-4.43,3.11-7.93,7.11-8.7,12.72-.94,6.8-.05,12.9,6.34,17.19,2.9,1.95,6.2,2.83,9.55,2.54,4.38-.39,8.34-2.1,11.55-5.25,3.59-3.53,5.69-7.61,5.74-10.82h0Z"/>
    <path d="m302.99,207.44c-.44.51-1,.45-1.53.42-1-.06-1.38.49-1.38,1.33,0,3.89.04,7.77.06,11.67,0,.87.49,1.27,1.33,1.52.74.22,1.48.76,1.24,1.59-.25.87-1.23.72-1.96.76-1.3.08-2.61.1-3.92.13-1.15.03-1.91-.51-2.14-1.56-.24-1.1.76-1.06,1.46-1.24.76-.2,1.03-.74,1.06-1.41.12-2.49.37-4.99-.23-7.92-2.61,3.71-4.87,7.12-6.96,11.14-2.68-3.39-3.58-7.37-5.76-10.65-.85.38-.97.97-.72,1.63.55,1.43.32,2.91.36,4.37.03,1.26.07,2.31,1.21,3.37,1.38,1.29.73,2.48-1.27,2.67-1.3.13-2.61.05-3.92.05-.8,0-1.58-.17-1.81-1.03-.23-.86-.23-1.74.92-2.01,1.16-.27,1.16-1.09,1.13-1.95-.13-3.52.44-7.04-.25-10.57-.2-.99-.2-1.83-1.52-2.01-1.07-.14-1.43-1-1.19-1.88.25-.93,1.24-.65,1.94-.7,3.89-.3,4.32-.02,5.99,3.39,1.42,2.89,2.48,5.96,4.49,8.87,1.48-1.49,2.1-3.19,3.02-4.69,1.1-1.8,2-3.73,3.38-5.38.51-.61.57-1.67,1.77-1.52,1.66.22,3.5-.68,4.94.77.19.2.19.58.26.85h-.02Z"/>
    <path d="m225.92,196.34c-.55,0-1.09.03-1.64,0-.82-.05-1.86.27-2.1-.93-.19-.96-.13-1.84.79-2.54,1.42-1.1,1.92-2.94,1.42-4.47-.2-.61-.61-.83-1.19-.82-1.75.02-3.49.05-5.23.08-.82.02-1.15.54-1.18,1.24-.04.94-.06,1.89,0,2.83.08,1.32,1.36,1.11,2.17,1.52,1.11.55,1.12,2.03-.07,2.42-2.4.78-4.91.89-7.41.39-.56-.12-.94-.55-.95-1.13-.02-.87.13-1.89,1.11-2.05,1.62-.27,1.7-1.19,1.68-2.45-.05-2.84-.01-5.68.05-8.51.02-1.04,0-1.9-1.4-1.97-.68-.04-1.17-.4-1.48-1.05-.6-1.27-.35-2.11,1.03-2.37,2.38-.45,4.77-.41,7.11.3.64.2,1.24.49,1.27,1.24.03.84-.43,1.38-1.31,1.53-1.19.21-1.93.69-1.95,2.05-.04,2.34.22,2.7,2.71,2.81.65.03,1.32.1,1.96.02,1.19-.17,2.98.7,3.42-.9.44-1.57,1.29-3.49-.74-4.89-.41-.28-.7-.82-.88-1.29-.31-.86.03-1.53,1.03-1.49,1.74.08,3.48.25,5.2.49.92.13,1.56.71,1.64,1.7.08,1.03-.64,1.21-1.45,1.29-1.43.14-1.28,1.23-1.3,2.13-.06,3.05-.04,6.1-.13,9.15-.04,1.49.11,2.71,1.97,3.04.63.11,1.3.47,1.18,1.26-.11.72-.82,1.01-1.45,1.1-1.28.19-2.59.25-3.89.38,0-.02,0-.05,0-.08h0Z"/>
    <path d="m176.83,203.33c1.46,2.51,1.58,4.79,1.08,7.09-.43.19-.6.14-.72-.06-1.91-3.31-3.1-3.79-6.84-2.76-5.44,1.5-6.92,4.05-5.47,9.4.95,3.53,5.02,5.76,8.65,4.75,1.01-.28,1.89-.79,1.74-1.94-.17-1.31.87-3.01-1.15-3.79-.5-.19-1.07-.24-1.38-.74-.34-.55-.59-1.14-.42-1.79.21-.81.94-.79,1.57-.76,1.63.09,3.26.17,4.87.37,1.14.14,1.58,1.02.82,1.79-1.35,1.38-1.4,2.96-1.4,4.66-.02,3.2-3,5.79-6.28,5.66-8.63-.35-11.59-6.75-11.05-12.38.62-6.41,7.77-10.67,13.88-7.99,1.69.74,1.42-.47,2.1-1.52h.01Z"/>
    <path d="m310.71,195.93c-1.98,0-3.4.01-4.81,0-.56,0-1.09-.17-1.29-.76-.19-.57.01-1.2.54-1.31,1.97-.43,1.72-1.87,1.72-3.22,0-2.94-.03-5.89-.05-8.83-.01-1.26.17-2.56-1.64-2.94-.84-.17-1.3-.93-1.1-1.69.17-.69,1.01-.66,1.66-.72,3.72-.34,7.34,0,10.99.94,4.43,1.14,8.03,6.17,5.89,11.87-1.41,3.75-4.37,5.93-8.53,6.46-1.3.16-2.61.17-3.35.21h0Zm-1.12-9.86h.25c0,1.89-.02,3.78.01,5.67.01.91.25,1.57,1.49,1.59,4.45.09,8.9-4.45,8.38-8.7-.21-1.76-.97-3.17-2.75-4-1.7-.79-3.45-1.2-5.34-1.32-1.63-.1-2.14.56-2.06,2.02.07,1.57.02,3.15.02,4.73h0Z"/>
    <path d="m268.54,239.82c-.73-2.51-2.24-2.74-3.98-2.59-.76.07-1.52.02-2.29.06-2.37.13-3.19,1.28-2.54,3.52.12.42.26.84.74.93,1.07.2,2.15.31,3.22.5,1.34.24,1.5-.76,2.03-1.56.5-.76,1.31-.24,1.4.39.2,1.34.25,2.71.19,4.07-.05,1.21-.74,1.53-1.63.57-1.53-1.66-3.44-.62-5.17-.78-.49-.04-.76.4-.77.85-.03,1.26-.05,2.52-.01,3.77.02.75.56,1.08,1.29,1.13,1.73.12,3.47.24,5.21.33,1.43.08,1.84-.82,2-1.98.09-.61.31-1.34,1.17-1.13.74.19.88.88.77,1.54-.18,1.14-.43,2.27-.64,3.4-.17.91-.78,1.16-1.65,1.11-4.24-.25-8.47-.48-12.7-.74-.52-.03-1.13-.03-1.31-.68-.19-.68-.04-1.37.66-1.58,1.43-.43,1.71-1.5,1.79-2.68.2-2.93.37-5.86.5-8.8.07-1.34-.11-2.56-1.92-2.71-.76-.06-1.18-.49-1.1-1.26.07-.68.64-.8,1.18-.83,4.13-.17,8.26-.32,12.39-.47.91-.03,1.39.5,1.67,1.24.44,1.2.56,2.4-.51,4.33v.02Z"/>
    <path d="m273.51,215.39c-.01,1.89-.23,3.32-.64,4.76-1.47,5.21-10.32,6.66-13.57,3.3-3.92-4.05-5.34-9.45-2.9-14.44,1.96-4.01,7.03-5.45,11.02-3.16,3.91,2.25,6.58,5.19,6.09,9.53h0Zm-3.42-1.93c-.02-.25,0-1.01-.2-1.7-.54-1.85-1.21-3.65-3.44-4.22-2.17-.56-3.82.42-5.3,1.75-2.99,2.72-3.46,8.66-1.04,11.94.66.89,1.42,1.13,2.5,1.06,4.57-.29,7.42-3.43,7.49-8.83h0Z"/>
    <path d="m247.02,246.5c-1.48-.6-2.1-1.79-3.67-1.72-3.5.13-4.71,1.57-3.6,4.9.24.72.7,1,1.42,1.05.76.05,1.52.08,2.28.13,2.63.17,4.46-.83,5.47-2.99.93.03,1.43.53,1.35,1.39-.1,1.04-.34,2.07-.52,3.11-.22,1.27-.95,1.7-2.29,1.61-3.91-.28-7.82-.45-11.73-.68-.73-.05-1.64.1-1.9-.84-.23-.86.31-1.46,1.11-1.66,1.12-.28,1.12-1.1,1.29-1.93.65-3.11.55-6.26.6-9.41.02-1.38-.14-2.53-1.93-2.67-.71-.06-1.25-.46-1.13-1.24.13-.83.91-.82,1.52-.84,3.91-.17,7.83-.27,11.74-.44,1.37-.06,2.05.59,2.19,1.79.12,1.01.35,2.06-.47,3.24-1.96-3.28-5.07-1.84-7.8-1.86-1.3,0-1.31,1.23-1.3,2.16,0,.91-.13,2.18,1.19,2.22,1.67.04,3.81,1.71,4.94-1.11.26-.66,1.28-.37,1.38.42.22,1.65.29,3.33-.16,5.4h0Z"/>
    <path d="m234.79,186.4c-.08-1.97.25-3.51.61-5.05,1.01-4.27,7.33-6.86,11.31-4.34,5.21,3.3,7.69,6.71,5.58,14.26-1.46,5.2-9.24,7.13-13.39,3.52-2.7-2.34-4.74-4.98-4.1-8.39h0Zm3.2.35c.05,1.93.27,3.79,1.32,5.48.69,1.12,1.49,1.57,2.94,1.34,6.21-.97,9.43-7.66,6.1-12.83-1.35-2.11-3.58-2.69-5.95-1.47-3.1,1.59-4.36,4.22-4.42,7.48h0Z"/>
    <path d="m197.01,217.66c-1.53-.04-1.52-1.4-2.65-1.63-3.71-.76-4.86.18-4.75,3.87.05,1.61.65,2.31,2.31,2.27.98-.03,1.96,0,2.94.09,1.78.16,3.3.05,3.45-2.2.04-.52.42-.99,1.1-.8.47.12.68.53.73.95.15,1.5-.34,2.91-.74,4.32-.22.74-.89.88-1.57.8-4.22-.52-8.47-.49-12.72-.71-.56-.03-1.12-.23-1.27-.8-.17-.65-.02-1.34.72-1.56,1.46-.42,1.67-1.56,1.75-2.72.22-2.83.38-5.66.5-8.49.07-1.4.06-2.8-1.99-2.97-.71-.06-1.16-.57-1.03-1.34.15-.83.88-.82,1.52-.86,4.02-.23,8.06.1,12.07-.37.89-.1,1.37.51,1.66,1.25.48,1.22.4,2.41-.16,4.26-2.03-3.92-5.15-2.38-7.84-2.42-1.02-.01-1.45.84-1.39,1.79.06.99-.42,2.26.99,2.7.91.28,1.94.21,2.9.35,1.22.18,1.65-.5,2.14-1.43.43-.82,1.22-.38,1.38.29.41,1.72.5,3.48-.07,5.34v.02Z"/>
    <path d="m321.56,210.43c-1.33-.34-1.09-2.06-2.53-1.98-1.85.1-3.7.07-5.54.23-.9.08-1.12.92-1.17,1.68-.06.94-.21,2.01.69,2.63.82.56,1.9.37,2.87.45.98.08,2.01.24,2.29-1.11.09-.42.48-.72.97-.64.7.1.76.69.77,1.2.02,1.55.25,3.12-.3,5.05-1.67-1.89-3.69-2.08-5.84-1.89-.74.07-1.33.29-1.37,1.04-.07,1.26-.08,2.52-.01,3.77.05.88.73,1.23,1.58,1.27,1.2.05,2.4.03,3.59.14,1.8.17,3.28,0,3.46-2.2.04-.49.34-1.07,1.08-.81.56.2.82.67.81,1.24,0,.31-.08.62-.13.94-.51,4.08-.58,4.07-4.84,3.71-3.04-.25-6.1-.29-9.14-.44-.86-.04-1.91.13-2.29-.82-.39-.98.31-1.53,1.25-1.83.88-.28.93-1.04,1.09-1.78.56-2.7.62-5.43.6-8.17-.01-1.81.55-3.94-2.44-4.21-.37-.03-.71-.49-.63-.98.1-.6.5-.94,1.09-.97,1.85-.08,3.7-.1,5.56-.14,1.96-.05,3.92-.05,5.89-.13,2.46-.1,2.89.2,3.02,2.48.04.72.14,1.47-.39,2.27h0Z"/>
    <path d="m278.01,178.03c-2.52.45-2.57,1.98-2.5,3.79.11,2.83.1,5.66-.71,8.44-1.97,6.81-7.94,6.35-12.17,4.12-1.97-1.04-2.6-3.05-2.68-5.12-.11-2.62-.14-5.25-.12-7.87.01-1.5-.08-2.69-2.16-2.7-1.09,0-1.33-.93-1.2-1.86.1-.79.72-1.04,1.4-1.02,2.17.09,4.35.18,6.46.77.51.14,1.09.38,1.01,1.04-.05.44-.44.75-.87.82-1.16.17-1.7.76-1.67,1.9.06,3.26-.07,6.52.18,9.76.22,2.94,2.33,4.35,5.18,3.81,1.84-.35,2.75-1.66,3.29-3.18,1.19-3.32,1.28-6.79,1.38-10.26.03-1.01-.63-1.19-1.44-1.31-.94-.14-1.74-.56-1.64-1.6.13-1.26,1.19-1.42,2.2-1.28,1.93.27,4.21-.78,6.08,1.75h-.01Z"/>
    <path d="m283.19,252.47c-4.89,2.16-6.91,2.02-9.13-.26,0-.69.5-.85,1.06-.91,1.27-.14,1.56-.98,1.55-2.01-.02-3.98-.09-7.97-.07-11.95,0-1.31-.84-1.82-1.84-2.31-.39-.19-.74-.47-.68-.96.06-.51.53-.68.92-.7,4.4-.27,8.76-.05,12.58,2.32,2.78,1.72,2.11,6.58-1.04,8.16-1.45.73-3.01,1.19-4.69,1.17-1.19-.01-1.78.62-1.81,1.75-.07,2.24-.78,4.73,3.16,5.7h0Zm-3.46-15.3c.2,1.64.35,2.87.52,4.11.07.5.13,1.05.82,1.15,1.33.18,3.53-1.86,3.7-3.41.2-1.85-.95-3.12-2.99-3.31-1.66-.15-2.14.29-2.06,1.46h0Z"/>
    <path d="m195.21,245.8c1.7.69,2.04,1.85,2.24,3.11.24,1.5,1.44,2.03,2.75,2.32,1.38.3,2.59-.06,3.46-1.21,1.23-1.61,1.03-3.18-.69-4.34-1.16-.78-2.43-1.39-3.64-2.1-2.03-1.17-3.5-2.82-4.37-4.94-.79-1.92-.36-3.15,1.46-4.25,1.04-.62,2.2-.87,3.43-.9,1.42-.03,2.82.11,4.22.34,1.11.18,2.6-.54,3.14.9.55,1.49.4,3.12.05,4.66-.16.71-.82.55-1.28.21-.73-.53-1.01-1.31-1.22-2.15-.36-1.41-1.51-1.94-2.86-2.23-1.39-.3-2.3.28-3,1.35-.68,1.05-.38,2.02.29,2.93.65.87,1.66,1.34,2.59,1.89,1.39.83,2.84,1.57,4.12,2.54,2,1.51,2.55,3.46,1.82,5.6-.78,2.28-2.6,3.48-5.06,3.79-2.12.27-4.12-1.01-6.32-.21-.61.22-1.21-1.08-1.3-1.94-.18-1.67-.27-3.35.19-5.36h-.02Z"/>
    <path d="m239.16,217.17c1.69.67,1.83,1.91,2.17,3.13.4,1.42,1.91,2.39,3.46,2.35,1.42-.03,2.48-.71,3.1-1.96.74-1.48.52-2.6-.89-3.58-1.23-.86-2.59-1.55-3.89-2.3-2.05-1.17-3.47-2.84-4.33-4.96-.74-1.83-.39-2.96,1.3-4.03,1.61-1.02,3.43-1.3,5.32-1.1.86.09,1.71.32,2.57.43,1.11.15,2.61-.54,3.11.96s.41,3.12,0,4.66c-.18.68-.84.48-1.3.12-.7-.56-.95-1.34-1.18-2.17-.38-1.37-1.49-1.98-2.87-2.22-1.36-.23-2.32.28-3,1.39-.65,1.06-.35,2.03.32,2.93.65.88,1.67,1.32,2.59,1.88,1.38.84,2.84,1.57,4.12,2.54,1.99,1.5,2.54,3.49,1.81,5.61-.77,2.22-2.66,3.64-5.07,3.83-1.55.12-3.03-.16-4.5-.6-.78-.23-1.49,1.04-2.35.05-.76-.88-.89-1.9-.88-2.96.01-1.24-.2-2.49.41-3.98h-.02Z"/>
    <path d="m193.89,188.48c1.47.54,1.57,1.82,1.89,3.05.43,1.67,1.84,2.24,3.47,2.35,1.48.09,2.48-.65,3.13-1.86.76-1.42.54-2.65-.82-3.59-1.24-.86-2.6-1.53-3.91-2.3-1.93-1.12-3.35-2.65-4.22-4.67-.97-2.24-.5-3.51,1.7-4.67,1.3-.69,2.71-.78,4.13-.72,1.08.05,2.15.29,3.24.34,1.16.05,2.57-.47,3.13.95.58,1.49.47,3.11.02,4.63-.19.64-.82.56-1.32.2-.76-.54-.92-1.36-1.17-2.18-.47-1.5-1.72-2.06-3.22-2.28-1.27-.19-2.06.46-2.69,1.4-.6.9-.46,1.79.08,2.67.59.94,1.57,1.43,2.49,1.98,1.48.88,3.04,1.68,4.41,2.7,1.9,1.42,2.55,3.33,1.81,5.61-.73,2.25-2.59,3.48-5.05,3.8-2.04.27-3.93-1.02-6.03-.21-.77.3-1.19-.69-1.43-1.41-.53-1.54-.4-3.63.34-5.8h0Z"/>
    <path d="m212.22,250.91c2.82-.52,4.16-2.18,4.03-4.98-.12-2.62-.24-5.24-.29-7.86-.02-1.28-.24-2.29-1.87-2.37-.42-.02-.88-.15-1.23-.36-.55-.33-1.07-.8-.86-1.52.19-.65.84-.53,1.37-.54,3.22-.12,7.19.37,8.85,1.1-.07.19-.12.51-.23.53-2.35.47-2.96,1.91-2.84,4.08.15,2.93.06,5.87-.02,8.8-.04,1.49.59,2.08,2.11,2.07,1.73-.01,3.5.33,5.2.1,2.13-.29,1.17-2.94,2.68-3.92,1.24.58,1.21,1.65,1.22,2.67,0,1.26.17,2.54-.34,3.73-.29.68-1.06.64-1.7.65-4.57.05-9.13.08-13.7.12-1.48.02-2.15-.76-2.36-2.3h0Z"/>
    <path d="m292.25,177.03c-2.02,1.35-3.04,3.41-3.07,6.19-.02,2.1-.05,4.19-.03,6.29.02,2.86.04,2.86,3.14,2.93h.32c3.06.05,5.15-1.18,6.27-3.71,1.04-.08,1.24.7,1.34,1.39.13.93.14,1.89.1,2.82-.1,2.6-.17,2.7-2.77,2.75-4.24.08-8.48.05-12.72.12-1.6.02-2.44-.65-2.57-2.16.17-.14.31-.36.48-.38,3.69-.38,3.72.36,3.53-4.2-.12-2.83-.27-5.66-.31-8.48-.02-1.34-.37-2.24-1.95-2.31-.66-.03-1.28-.25-1.69-.81-.25-.34-.58-.71-.28-1.12.16-.22.51-.46.76-.45,3.02.21,6.09-.03,9.07.65.16.03.26.31.38.47h0Z"/>
    <path d="m219.6,211.02c-1.31-.21-1.85-.98-2.08-1.93-.3-1.25-1.14-1.31-2.21-1.21-1.28.11-1.56.87-1.63,1.93-.19,3.14-.4,6.29-.64,9.42-.13,1.66-.06,3.15,2.06,3.64.38.09.63.56.52,1.21-2.3.85-4.78.45-7.23.31-.55-.03-.97-.51-1.03-1.08-.07-.67.41-.93,1-.97,1.54-.11,1.59-1.16,1.6-2.26.01-3.36-.06-6.72.07-10.07.07-1.72-.97-1.76-2.24-1.91-1.45-.17-1.63.62-1.64,1.69,0,.42-.04.85-.17,1.24-.29.86-.85.86-1.43.27-1.04-1.05-1.34-3.96-.58-5.05.44-.64,1.11-.57,1.75-.58,3.7-.08,7.4-.19,11.1-.18,2.33,0,2.65.33,2.89,2.49.1.92.32,1.87-.11,3.04h0Z"/>
    <path d="m162.64,180.69c-1.12-.41-1.39-1.1-1.59-1.82-.22-.81-.04-1.48.95-1.63,3.23-.49,6.49-.64,9.75-.63,1.64,0,2.02.9,2.03,3.49-.82.1-1.06-.55-1.44-1.02-.62-.79-1.49-.82-2.36-.61-1.13.26-1.05,1.21-1.06,2.04-.02,3.77-.02,7.55,0,11.32,0,1.08.06,2.09,1.51,2.39,1.6.33,2.37-.32,2.45-1.93,1.52.79,1.51,1.94,1.57,3.39-3.58.2-7.1.49-10.63.58-2.89.08-3.2-.41-2.51-3.16.07-.29.22-.57.34-.86,1.01-.12.98.64,1.1,1.18.19.76.69.99,1.42.97.73-.02,1.3-.32,1.48-1.01.19-.7.32-1.44.32-2.16.04-3.46.04-6.92.01-10.38,0-1.01.22-2.12-1.38-2.41-2.03-.36-1.37,1.39-1.97,2.25h0Z"/>
  </g>
  <text/>
</svg>